HIERARCHY
ROOT Hips
{
	OFFSET -0.001795 -0.223333 0.028219
	CHANNELS 6 Xposition Yposition Zposition Zrotation Yrotation Xrotation 
	JOINT LeftUpLeg
	{
		OFFSET 0.069520 -0.091406 -0.006815
		CHANNELS 3 Zrotation Yrotation Xrotation
		JOINT LeftLeg
		{
			OFFSET 0.034277 -0.375199 -0.004496
			CHANNELS 3 Zrotation Yrotation Xrotation
			JOINT LeftFoot
			{
				OFFSET -0.013596 -0.397961 -0.043693
				CHANNELS 3 Zrotation Yrotation Xrotation
				JOINT LeftToe
				{
					OFFSET 0.026358 -0.055791 0.119288
					CHANNELS 3 Zrotation Yrotation Xrotation
					End Site
					{
						OFFSET 0.000000 0.000000 0.000000
					}
				}
			}
		}
	}
	JOINT RightUpLeg
	{
		OFFSET -0.067670 -0.090522 -0.004320
		CHANNELS 3 Zrotation Yrotation Xrotation
		JOINT RightLeg
		{
			OFFSET -0.038290 -0.382569 -0.008850
			CHANNELS 3 Zrotation Yrotation Xrotation
			JOINT RightFoot
			{
				OFFSET 0.015774 -0.398415 -0.042312
				CHANNELS 3 Zrotation Yrotation Xrotation
				JOINT RightToe
				{
					OFFSET -0.025372 -0.048144 0.123348
					CHANNELS 3 Zrotation Yrotation Xrotation
					End Site
					{
						OFFSET 0.000000 0.000000 0.000000
					}
				}
			}
		}
	}
	JOINT Spine
	{
		OFFSET -0.002533 0.108963 -0.026696
		CHANNELS 3 Zrotation Yrotation Xrotation
		JOINT Spine1
		{
			OFFSET 0.005487 0.135180 0.001092
			CHANNELS 3 Zrotation Yrotation Xrotation
			JOINT Spine2
			{
				OFFSET 0.001457 0.052922 0.025425
				CHANNELS 3 Zrotation Yrotation Xrotation
				JOINT Neck
				{
					OFFSET -0.002778 0.213870 -0.042857
					CHANNELS 3 Zrotation Yrotation Xrotation
					JOINT Head
					{
						OFFSET 0.005152 0.064970 0.051349
						CHANNELS 3 Zrotation Yrotation Xrotation
						End Site
						{
							OFFSET 0.000000 0.000000 0.000000
						}
					}
				}
				JOINT LeftShoulder
				{
					OFFSET 0.078845 0.121749 -0.034090
					CHANNELS 3 Zrotation Yrotation Xrotation
					JOINT LeftArm
					{
						OFFSET 0.090977 0.030469 -0.008868
						CHANNELS 3 Zrotation Yrotation Xrotation
						JOINT LeftForeArm
						{
							OFFSET 0.259612 -0.012772 -0.027456
							CHANNELS 3 Zrotation Yrotation Xrotation
							JOINT LeftHand
							{
								OFFSET 0.249234 0.008986 -0.001171
								CHANNELS 3 Zrotation Yrotation Xrotation
								End Site
								{
									OFFSET 0.000000 0.000000 0.000000
								}
							}
						}
					}
				}
				JOINT RightShoulder
				{
					OFFSET -0.081759 0.118833 -0.038615
					CHANNELS 3 Zrotation Yrotation Xrotation
					JOINT RightArm
					{
						OFFSET -0.096012 0.032551 -0.009143
						CHANNELS 3 Zrotation Yrotation Xrotation
						JOINT RightForeArm
						{
							OFFSET -0.253742 -0.013329 -0.021401
							CHANNELS 3 Zrotation Yrotation Xrotation
							JOINT RightHand
							{
								OFFSET -0.255298 0.007772 -0.005559
								CHANNELS 3 Zrotation Yrotation Xrotation
								End Site
								{
									OFFSET 0.000000 0.000000 0.000000
								}
							}
						}
					}
				}
			}
		}
	}
}
MOTION
Frames: 15
Frame Time: 0.050000
0.000000 0.967398 0.000000 -1.072036 3.997865 -0.928356 3.710787 0.329930 7.664352 -2.102599 0.322791 -8.369852 2.757284 6.430660 1.816573 0.000000 0.000000 0.000000 -2.236477 -0.213906 2.837650 0.315713 -0.065797 -0.828385 -5.039471 -14.188117 13.890969 0.000000 0.000000 0.000000 4.978157 -0.520763 5.719397 -5.526093 1.964715 -25.826134 -1.661151 0.739207 27.624153 7.806879 -5.430542 -9.805299 0.000000 0.000000 0.000000 8.366284 0.216057 0.453044 -9.505189 -15.072955 -1.264302 16.632018 -0.491113 -0.081056 0.000000 0.000000 0.000000 1.716776 -11.119487 -4.290155 10.732236 14.858526 -1.297575 -16.351329 5.864968 -0.177264 0.000000 0.000000 0.000000 
0.000297 0.966578 -0.000694 -1.331703 3.453448 -0.667975 3.506686 0.361631 7.770606 -1.482219 0.328770 -9.594479 3.073728 7.370176 2.765790 0.000000 0.000000 0.000000 -2.111805 -0.218268 2.895092 0.511311 -0.098645 -1.184091 -4.634965 -13.420211 12.893008 0.000000 0.000000 0.000000 5.854398 -0.540776 5.345019 -6.468832 2.161202 -25.866868 -1.380858 0.866532 27.226777 6.948666 -5.019480 -8.159345 0.000000 0.000000 0.000000 8.639696 0.185790 0.459801 -10.597634 -14.439149 -1.300991 15.677533 -2.163922 -0.234637 0.000000 0.000000 0.000000 2.445369 -11.897568 -4.680395 10.490399 14.172505 -1.271973 -14.791593 9.266078 -0.484461 0.000000 0.000000 0.000000 
0.000514 0.965816 -0.001535 -0.825102 2.491996 -0.994185 3.062617 0.424898 7.818463 -1.408813 0.314743 -8.301961 3.121619 7.125734 1.758875 0.000000 0.000000 0.000000 -3.119593 -0.200535 3.263989 0.836295 -0.136405 -1.351037 -3.852570 -12.016746 12.289781 0.000000 0.000000 0.000000 5.846940 -0.540710 5.468893 -6.402240 2.107109 -26.718773 -1.758112 2.628423 29.130061 8.303770 -5.923285 -8.911928 0.000000 0.000000 0.000000 8.305600 0.428346 0.433993 -11.243659 -15.661399 -1.352087 16.570239 -2.080270 -0.282693 0.000000 0.000000 0.000000 4.894090 -12.860812 -5.342589 10.966591 16.332255 -1.347466 -16.240951 8.168752 -0.392199 0.000000 0.000000 0.000000 
0.000748 0.966755 -0.002384 -0.909708 2.171342 -1.575683 3.039711 0.455374 8.147357 -1.499798 0.309699 -7.690017 3.429348 7.672982 1.566592 0.000000 0.000000 0.000000 -3.329652 -0.211349 3.510562 1.295227 -0.172314 -1.005530 -3.714564 -11.856173 12.644797 0.000000 0.000000 0.000000 6.411719 -0.583242 5.711981 -6.746986 2.193963 -26.456765 -1.832514 2.649932 29.850731 8.121559 -5.838845 -8.781040 0.000000 0.000000 0.000000 8.238206 0.257407 0.446127 -13.761562 -15.781632 -1.442812 18.640408 -3.227445 -0.469640 0.000000 0.000000 0.000000 5.729061 -12.819992 -5.423630 11.439225 17.378126 -1.334957 -15.818267 8.262657 -0.385553 0.000000 0.000000 0.000000 
0.000741 0.967380 -0.003268 -0.649672 1.995146 -1.761148 3.186845 0.443590 8.060648 -2.130158 0.330701 -7.323127 3.340883 7.557849 1.753268 0.000000 0.000000 0.000000 -3.633442 -0.201669 3.579360 1.192572 -0.156484 -0.837731 -3.487347 -11.451592 12.599953 0.000000 0.000000 0.000000 6.070203 -0.582798 5.958710 -6.072484 2.043716 -26.544804 -2.284738 3.230269 29.360942 8.319993 -5.942613 -8.654734 0.000000 0.000000 0.000000 6.912067 -0.315511 0.573079 -15.181326 -15.903857 -1.451309 19.405616 -5.573728 -0.842457 0.000000 0.000000 0.000000 6.877166 -12.057374 -5.188159 13.357560 17.075450 -1.340351 -15.794314 9.314986 -0.469376 0.000000 0.000000 0.000000 
0.000682 0.967701 -0.004055 -0.524491 1.821638 -1.752709 3.143122 0.437034 7.821451 -2.143780 0.327702 -6.926564 3.267348 7.405876 1.730191 0.000000 0.000000 0.000000 -3.989782 -0.172283 3.420669 1.270763 -0.156901 -0.579094 -3.039910 -10.616014 12.440531 0.000000 0.000000 0.000000 6.085478 -0.563944 5.759009 -6.223400 2.085406 -26.185497 -2.270451 3.075903 29.262460 8.470350 -5.750925 -10.211018 0.000000 0.000000 0.000000 5.961264 -0.349061 0.511706 -18.220702 -16.134671 -1.508305 19.999381 -7.679599 -1.145237 0.000000 0.000000 0.000000 7.427665 -12.181799 -5.323486 16.967314 18.042908 -1.246228 -16.142989 10.180510 -0.547885 0.000000 0.000000 0.000000 
0.000525 0.967201 -0.004747 -0.489313 1.558299 -1.714526 3.342159 0.412752 7.596811 -2.410449 0.340232 -6.804494 3.256662 7.430908 1.879145 0.000000 0.000000 0.000000 -3.947430 -0.148440 3.098538 1.083695 -0.134047 -0.493384 -3.005951 -10.635428 12.710441 0.000000 0.000000 0.000000 5.988612 -0.547454 5.645223 -5.731177 1.994657 -25.537759 -2.660572 3.039555 28.449729 8.448974 -5.698144 -10.317490 0.000000 0.000000 0.000000 3.640679 -0.543771 0.425014 -20.472685 -15.500426 -1.594305 20.142116 -9.752076 -1.431139 0.000000 0.000000 0.000000 9.105197 -11.682857 -5.308511 19.425440 18.109625 -1.174535 -16.633084 11.656154 -0.723936 0.000000 0.000000 0.000000 
0.000323 0.966648 -0.005304 -0.551123 1.342245 -1.505251 3.429400 0.364336 6.839006 -2.528829 0.339376 -6.032491 3.507909 7.872816 1.699799 0.000000 0.000000 0.000000 -3.900197 -0.097183 2.382600 1.142119 -0.120032 0.180734 -3.026365 -10.662495 12.533021 0.000000 0.000000 0.000000 6.233983 -0.548939 5.484556 -5.543727 1.950091 -25.414882 -2.899798 3.123645 28.504543 8.879946 -5.836675 -11.366250 0.000000 0.000000 0.000000 0.907122 -0.993600 0.391688 -23.227603 -14.998532 -1.751295 20.405573 -12.006655 -1.759053 0.000000 0.000000 0.000000 11.099312 -11.689217 -5.553442 23.080453 18.496546 -1.104077 -17.470512 13.327692 -0.926269 0.000000 0.000000 0.000000 
0.000057 0.965923 -0.005740 -0.521256 0.870283 -1.325922 3.555911 0.331215 6.303802 -2.854261 0.356479 -5.529498 3.769729 8.377786 1.647586 0.000000 0.000000 0.000000 -4.015215 -0.064279 2.062572 1.227436 -0.127458 0.204429 -2.833183 -10.315995 12.315392 0.000000 0.000000 0.000000 6.202465 -0.528462 5.267721 -5.279172 1.887302 -25.136471 -2.908753 3.374841 28.326549 8.706016 -5.447209 -12.465713 0.000000 0.000000 0.000000 -1.934600 -1.680361 0.445877 -26.103416 -14.874682 -1.850965 20.155249 -13.022820 -1.839780 0.000000 0.000000 0.000000 13.291020 -11.333233 -5.653874 26.834293 18.258405 -1.085286 -18.002350 15.345004 -1.161019 0.000000 0.000000 0.000000 
-0.000278 0.965469 -0.006013 -0.504638 0.960279 -1.123031 3.907169 0.266872 5.613890 -3.232853 0.376728 -5.232855 3.645345 8.253835 2.074371 0.000000 0.000000 0.000000 -3.960801 -0.012394 1.268071 1.119599 -0.099761 0.747251 -3.027906 -10.781061 12.923065 0.000000 0.000000 0.000000 6.187549 -0.493882 4.869821 -5.048947 1.852928 -24.367062 -3.150922 3.239449 27.891347 8.858723 -5.302374 -13.713403 0.000000 0.000000 0.000000 -4.871775 -2.206978 0.447350 -29.173241 -14.648155 -1.953699 19.881547 -14.764264 -2.015877 0.000000 0.000000 0.000000 15.775343 -10.881262 -5.751881 30.886587 17.678775 -1.116440 -18.125476 16.909842 -1.305142 0.000000 0.000000 0.000000 
-0.000621 0.964803 -0.006088 -0.529196 0.943663 -1.034019 4.084125 0.235978 5.249602 -3.242170 0.375590 -4.865967 3.533227 8.010174 1.992649 0.000000 0.000000 0.000000 -4.100038 0.010764 0.990118 1.304395 -0.114647 0.976911 -2.905738 -10.550243 12.881336 0.000000 0.000000 0.000000 6.107104 -0.499090 4.946642 -4.874404 1.814727 -24.164160 -3.091490 3.224551 27.616281 8.606381 -4.988805 -14.291167 0.000000 0.000000 0.000000 -7.734723 -2.718067 0.455929 -32.024689 -14.017486 -2.157354 18.703326 -17.212759 -2.148062 0.000000 0.000000 0.000000 18.286303 -10.406787 -5.825619 34.982194 16.703842 -1.289143 -17.365740 19.064676 -1.394245 0.000000 0.000000 0.000000 
-0.000902 0.964394 -0.005965 -0.549903 0.888113 -0.891272 4.231576 0.197830 4.696632 -3.343979 0.380167 -4.340498 3.563459 8.074614 2.012303 0.000000 0.000000 0.000000 -4.137547 0.037700 0.619819 1.339297 -0.111257 1.241776 -2.830730 -10.430648 12.944511 0.000000 0.000000 0.000000 6.165967 -0.496326 4.858986 -5.128596 1.879725 -23.945041 -2.789855 3.319368 27.635679 8.659356 -4.808517 -15.380998 0.000000 0.000000 0.000000 -10.067042 -2.856440 0.340509 -35.825976 -13.411112 -2.444398 16.738695 -20.375546 -2.164800 0.000000 0.000000 0.000000 20.489253 -10.074640 -5.916263 39.746205 15.280876 -1.655092 -16.143041 21.181606 -1.350901 0.000000 0.000000 0.000000 
-0.001148 0.964183 -0.005704 -0.538129 1.225940 -0.707682 4.406047 0.144572 3.960316 -3.586036 0.392938 -3.737054 3.517734 8.015464 2.112173 0.000000 0.000000 0.000000 -4.115329 0.054710 0.323087 1.168305 -0.089262 1.331731 -2.841796 -10.482844 13.334979 0.000000 0.000000 0.000000 6.120066 -0.497191 4.842750 -5.108636 1.879022 -23.896703 -2.617983 3.281686 27.574201 8.503748 -4.561268 -15.938711 0.000000 0.000000 0.000000 -12.647261 -3.254023 0.293005 -39.737159 -12.613627 -2.811282 14.393032 -23.269791 -1.970597 0.000000 0.000000 0.000000 22.668739 -9.756296 -5.971018 44.487517 13.346007 -2.303346 -14.776135 23.133482 -1.205301 0.000000 0.000000 0.000000 
-0.001354 0.963853 -0.005395 -0.560961 1.429237 -0.639089 4.587421 0.102859 3.362755 -3.713534 0.399793 -3.161939 3.461823 7.951588 2.265698 0.000000 0.000000 0.000000 -4.161937 0.067611 0.116830 1.214812 -0.095119 1.347021 -2.878091 -10.621751 13.869287 0.000000 0.000000 0.000000 6.227831 -0.505840 4.855972 -5.345289 1.948779 -23.608977 -2.282525 3.287515 27.581123 8.762394 -4.559921 -16.848860 0.000000 0.000000 0.000000 -14.417242 -3.213336 0.099042 -43.959374 -12.161139 -3.135929 11.228496 -24.799348 -1.375122 0.000000 0.000000 0.000000 24.201845 -9.764668 -6.146258 48.863485 11.459733 -3.050377 -12.754281 25.010440 -0.882848 0.000000 0.000000 0.000000 
-0.001596 0.963619 -0.005006 -0.653336 1.690861 -0.596084 4.751115 0.069694 2.899967 -3.704538 0.396450 -2.665804 3.395947 7.835088 2.297811 0.000000 0.000000 0.000000 -4.133488 0.058459 0.215579 1.204213 -0.103901 1.016393 -2.787729 -10.502775 14.306003 0.000000 0.000000 0.000000 6.209312 -0.509268 4.881374 -5.379274 1.961345 -23.610291 -2.109504 3.386292 27.789349 8.779161 -4.448948 -17.328532 0.000000 0.000000 0.000000 -15.542485 -3.243623 -0.034900 -47.648862 -11.226590 -3.674105 8.477465 -26.078815 -0.791825 0.000000 0.000000 0.000000 25.253876 -9.483841 -6.011528 51.865411 9.730809 -3.865002 -9.891934 25.753955 -0.314043 0.000000 0.000000 0.000000 
